<svg width="140" height="59" viewBox="0 0 140 59" fill="none" xmlns="http://www.w3.org/2000/svg">
<path d="M59.2017 43.1818C58.1619 43.1818 57.267 43.0455 56.517 42.7727C55.7727 42.5 55.1648 42.1392 54.6932 41.6903C54.2216 41.2415 53.8693 40.75 53.6364 40.2159L55.8267 39.3125C55.9801 39.5625 56.1847 39.8267 56.4403 40.1051C56.7017 40.3892 57.054 40.6307 57.4972 40.8295C57.946 41.0284 58.5227 41.1278 59.2273 41.1278C60.1932 41.1278 60.9915 40.892 61.6222 40.4205C62.2528 39.9545 62.5682 39.2102 62.5682 38.1875V35.6136H62.4062C62.2528 35.892 62.0313 36.2017 61.7415 36.5426C61.4574 36.8835 61.0653 37.179 60.5653 37.429C60.0653 37.679 59.4148 37.804 58.6136 37.804C57.5795 37.804 56.6477 37.5625 55.8182 37.0795C54.9943 36.5909 54.3409 35.8722 53.858 34.9233C53.3807 33.9687 53.142 32.7955 53.142 31.4034C53.142 30.0114 53.3778 28.8182 53.8494 27.8239C54.3267 26.8295 54.9801 26.0682 55.8097 25.5398C56.6392 25.0057 57.5795 24.7386 58.6307 24.7386C59.4432 24.7386 60.0994 24.875 60.5994 25.1477C61.0994 25.4148 61.4886 25.7273 61.767 26.0852C62.0511 26.4432 62.2699 26.7585 62.4233 27.0312H62.6108V24.9091H65.108V38.2898C65.108 39.4148 64.8466 40.3381 64.3239 41.0597C63.8011 41.7813 63.0938 42.3153 62.2017 42.6619C61.3153 43.0085 60.3153 43.1818 59.2017 43.1818ZM59.1761 35.6903C59.9091 35.6903 60.5284 35.5199 61.0341 35.179C61.5455 34.8324 61.9318 34.3381 62.1932 33.696C62.4602 33.0483 62.5938 32.2727 62.5938 31.3693C62.5938 30.4886 62.4631 29.7131 62.2017 29.0426C61.9403 28.3722 61.5568 27.8494 61.0511 27.4744C60.5455 27.0937 59.9205 26.9034 59.1761 26.9034C58.4091 26.9034 57.7699 27.1023 57.2585 27.5C56.7472 27.892 56.3608 28.4261 56.0994 29.1023C55.8438 29.7784 55.7159 30.5341 55.7159 31.3693C55.7159 32.2273 55.8466 32.9801 56.108 33.6278C56.3693 34.2756 56.7557 34.7812 57.267 35.1449C57.7841 35.5085 58.4205 35.6903 59.1761 35.6903ZM74.1676 38.2642C72.8778 38.2642 71.767 37.9886 70.8352 37.4375C69.9091 36.8807 69.1932 36.0994 68.6875 35.0938C68.1875 34.0824 67.9375 32.8977 67.9375 31.5398C67.9375 30.1989 68.1875 29.017 68.6875 27.9943C69.1932 26.9716 69.8977 26.1733 70.8011 25.5994C71.7102 25.0256 72.7727 24.7386 73.9886 24.7386C74.7273 24.7386 75.4432 24.8608 76.1364 25.1051C76.8295 25.3494 77.4517 25.733 78.0028 26.2557C78.554 26.7784 78.9886 27.4574 79.3068 28.2926C79.625 29.1222 79.7841 30.1307 79.7841 31.3182V32.2216H69.3778V30.3125H77.2869C77.2869 29.642 77.1506 29.0483 76.8778 28.5312C76.6051 28.0085 76.2216 27.5966 75.7273 27.2955C75.2386 26.9943 74.6648 26.8438 74.0057 26.8438C73.2898 26.8438 72.6648 27.0199 72.1307 27.3722C71.6023 27.7187 71.1932 28.1733 70.9034 28.7358C70.6193 29.2926 70.4773 29.8977 70.4773 30.5511V32.0426C70.4773 32.9176 70.6307 33.6619 70.9375 34.2756C71.25 34.8892 71.6847 35.358 72.2415 35.6818C72.7983 36 73.4489 36.1591 74.1932 36.1591C74.6761 36.1591 75.1165 36.0909 75.5142 35.9545C75.9119 35.8125 76.2557 35.6023 76.5455 35.3239C76.8352 35.0455 77.0568 34.7017 77.2102 34.2926L79.6222 34.7273C79.429 35.4375 79.0824 36.0597 78.5824 36.5938C78.0881 37.1222 77.4659 37.5341 76.7159 37.8295C75.9716 38.1193 75.1222 38.2642 74.1676 38.2642ZM82.6115 38V24.9091H85.0746V26.9886H85.2109C85.4496 26.2841 85.87 25.7301 86.4723 25.3267C87.0803 24.9176 87.7678 24.7131 88.5348 24.7131C88.6939 24.7131 88.8814 24.7187 89.0973 24.7301C89.3189 24.7415 89.4922 24.7557 89.6172 24.7727V27.2102C89.5149 27.1818 89.3331 27.1506 89.0717 27.1165C88.8104 27.0767 88.549 27.0568 88.2876 27.0568C87.6854 27.0568 87.1484 27.1847 86.6768 27.4403C86.2109 27.6903 85.8416 28.0398 85.5689 28.4886C85.2962 28.9318 85.1598 29.4375 85.1598 30.0057V38H82.6115ZM91.8224 38V24.9091H94.2685V27.0398H94.4304C94.7031 26.3182 95.1491 25.7557 95.7685 25.3523C96.3878 24.9432 97.1293 24.7386 97.9929 24.7386C98.8679 24.7386 99.6009 24.9432 100.192 25.3523C100.788 25.7614 101.229 26.3239 101.513 27.0398H101.649C101.962 26.3409 102.459 25.7841 103.141 25.3693C103.822 24.9489 104.635 24.7386 105.578 24.7386C106.766 24.7386 107.734 25.1108 108.484 25.8551C109.24 26.5994 109.618 27.7216 109.618 29.2216V38H107.07V29.4602C107.07 28.5739 106.828 27.9318 106.345 27.5341C105.862 27.1364 105.286 26.9375 104.615 26.9375C103.786 26.9375 103.141 27.1932 102.68 27.7045C102.22 28.2102 101.99 28.8608 101.99 29.6562V38H99.4503V29.2983C99.4503 28.5881 99.2287 28.017 98.7855 27.5852C98.3423 27.1534 97.7656 26.9375 97.0554 26.9375C96.5724 26.9375 96.1264 27.0653 95.7173 27.321C95.3139 27.571 94.9872 27.9205 94.7372 28.3693C94.4929 28.8182 94.3707 29.3381 94.3707 29.929V38H91.8224ZM116.843 38.2898C116.013 38.2898 115.263 38.1364 114.593 37.8295C113.923 37.517 113.391 37.0653 112.999 36.4744C112.613 35.8835 112.42 35.1591 112.42 34.3011C112.42 33.5625 112.562 32.9545 112.846 32.4773C113.13 32 113.513 31.6222 113.996 31.3438C114.479 31.0653 115.019 30.8551 115.616 30.7131C116.212 30.571 116.82 30.4631 117.44 30.3892C118.224 30.2983 118.86 30.2244 119.349 30.1676C119.837 30.1051 120.192 30.0057 120.414 29.8693C120.636 29.733 120.746 29.5114 120.746 29.2045V29.1449C120.746 28.4006 120.536 27.8239 120.116 27.4148C119.701 27.0057 119.082 26.8011 118.258 26.8011C117.4 26.8011 116.724 26.9915 116.229 27.3722C115.741 27.7472 115.403 28.1648 115.215 28.625L112.82 28.0795C113.104 27.2841 113.519 26.642 114.065 26.1534C114.616 25.6591 115.249 25.3011 115.965 25.0795C116.681 24.8523 117.434 24.7386 118.224 24.7386C118.746 24.7386 119.3 24.8011 119.886 24.9261C120.477 25.0455 121.028 25.267 121.539 25.5909C122.056 25.9148 122.479 26.3778 122.809 26.9801C123.138 27.5767 123.303 28.3523 123.303 29.3068V38H120.815V36.2102H120.712C120.548 36.5398 120.3 36.8636 119.971 37.1818C119.641 37.5 119.218 37.7642 118.701 37.9744C118.184 38.1847 117.565 38.2898 116.843 38.2898ZM117.397 36.2443C118.102 36.2443 118.704 36.1051 119.204 35.8267C119.71 35.5483 120.093 35.1847 120.354 34.7358C120.621 34.2812 120.755 33.7955 120.755 33.2784V31.5909C120.664 31.6818 120.488 31.767 120.227 31.8466C119.971 31.9205 119.678 31.9858 119.349 32.0426C119.019 32.0937 118.698 32.142 118.386 32.1875C118.073 32.2273 117.812 32.2614 117.602 32.2898C117.107 32.3523 116.656 32.4574 116.246 32.6051C115.843 32.7528 115.519 32.9659 115.275 33.2443C115.036 33.517 114.917 33.8807 114.917 34.3352C114.917 34.9659 115.15 35.4432 115.616 35.767C116.082 36.0852 116.675 36.2443 117.397 36.2443ZM129.246 30.2273V38H126.697V24.9091H129.143V27.0398H129.305C129.607 26.3466 130.078 25.7898 130.72 25.3693C131.368 24.9489 132.183 24.7386 133.166 24.7386C134.058 24.7386 134.839 24.9261 135.51 25.3011C136.18 25.6705 136.7 26.2216 137.07 26.9545C137.439 27.6875 137.624 28.5937 137.624 29.6733V38H135.075V29.9801C135.075 29.0312 134.828 28.2898 134.334 27.7557C133.839 27.2159 133.161 26.946 132.297 26.946C131.706 26.946 131.18 27.0739 130.72 27.3295C130.266 27.5852 129.905 27.9602 129.638 28.4545C129.376 28.9432 129.246 29.5341 129.246 30.2273Z" fill="#4EC98F"/>
<rect width="35.8333" height="31.5345" transform="translate(7.16663 13.2241)" fill="#4EC98F"/>
<path d="M27.4602 22.1193C27.1307 21.0852 26.6875 20.1591 26.1307 19.3409C25.5852 18.5114 24.9318 17.8068 24.1705 17.2273C23.4091 16.6364 22.5398 16.1875 21.5625 15.8807C20.5966 15.5739 19.5341 15.4205 18.375 15.4205C16.4091 15.4205 14.6364 15.9261 13.0568 16.9375C11.4773 17.9489 10.2273 19.4318 9.30682 21.3864C8.39773 23.3295 7.94318 25.7102 7.94318 28.5284C7.94318 31.358 8.40341 33.75 9.32386 35.7045C10.2443 37.6591 11.5057 39.142 13.108 40.1534C14.7102 41.1648 16.5341 41.6705 18.5795 41.6705C20.4773 41.6705 22.1307 41.2841 23.5398 40.5114C24.9602 39.7386 26.0568 38.6477 26.8295 37.2386C27.6136 35.8182 28.0057 34.1477 28.0057 32.2273L29.3693 32.483H19.3807V28.1364H33.1023V32.108C33.1023 35.0398 32.4773 37.5852 31.2273 39.7443C29.9886 41.892 28.2727 43.5511 26.0795 44.7216C23.8977 45.892 21.3977 46.4773 18.5795 46.4773C15.4205 46.4773 12.6477 45.75 10.2614 44.2955C7.88636 42.8409 6.03409 40.7784 4.70455 38.108C3.375 35.4261 2.71023 32.2443 2.71023 28.5625C2.71023 25.7784 3.09659 23.2784 3.86932 21.0625C4.64205 18.8466 5.72727 16.9659 7.125 15.4205C8.53409 13.8636 10.1875 12.6761 12.0852 11.858C13.9943 11.0284 16.0795 10.6136 18.3409 10.6136C20.2273 10.6136 21.983 10.892 23.608 11.4489C25.2443 12.0057 26.6989 12.7955 27.9716 13.8182C29.2557 14.8409 30.3182 16.0568 31.1591 17.4659C32 18.8636 32.5682 20.4148 32.8636 22.1193H27.4602Z" fill="white"/>
</svg>
